<svg xmlns="http://www.w3.org/2000/svg" width="33.465" viewBox="0 0 64 64"><rect width="20" height="12" x="3" y="22" fill="#18cd3e"/><rect width="19" height="12" x="23" y="10" fill="#d7e6ef"/><rect width="19" height="12" x="42" y="10" fill="#3cacef"/><rect width="38" height="12" x="23" y="22" fill="#c02027"/><rect width="19" height="12" x="42" y="34" fill="#ffc02a" transform="rotate(180 51.5 40)"/><rect width="39" height="12" x="3" y="34" fill="#db9300" transform="rotate(180 22.5 40)"/><rect width="19" height="12" x="3" y="46" fill="#545a6d" transform="rotate(180 12.5 52)"/><rect width="39" height="12" x="22" y="46" fill="#44394a" transform="rotate(180 41.5 52)"/><rect width="4" height="4" x="25" y="6" fill="#a4c0d8"/><rect width="4" height="4" x="35" y="6" fill="#a4c0d8"/><rect width="4" height="4" x="5" y="18" fill="#129a2f"/><rect width="4" height="4" x="15" y="18" fill="#129a2f"/><rect width="4" height="4" x="45" y="6" fill="#189fef"/><rect width="4" height="4" x="55" y="6" fill="#189fef"/></svg>